<svg width="37" height="37" viewBox="0 0 37 37" fill="none" xmlns="http://www.w3.org/2000/svg">
<path d="M28.8973 16.1915C28.1018 16.1915 27.4728 15.544 27.4728 14.7669C27.4728 14.0824 26.7882 12.6579 25.6412 11.4184C24.5127 10.2159 23.2732 9.51285 22.2372 9.51285C21.4417 9.51285 20.8127 8.86534 20.8127 8.08833C20.8127 7.31132 21.4602 6.66382 22.2372 6.66382C24.0872 6.66382 26.0297 7.66283 27.7318 9.45735C29.3228 11.1409 30.3403 13.2314 30.3403 14.7484C30.3403 15.544 29.6928 16.1915 28.8973 16.1915Z" fill="black"/>
<path d="M35.5756 16.1884C34.7801 16.1884 34.1511 15.5409 34.1511 14.7639C34.1511 8.19631 28.8045 2.86826 22.2554 2.86826C21.4599 2.86826 20.8309 2.22075 20.8309 1.44375C20.8309 0.666739 21.4599 0.000732422 22.2369 0.000732422C30.377 0.000732422 37.0001 6.6238 37.0001 14.7639C37.0001 15.5409 36.3526 16.1884 35.5756 16.1884Z" fill="black"/>
<path d="M16.7427 23.9585L13.3201 27.381C12.5986 28.1025 11.4516 28.1025 10.7116 27.3995C10.5081 27.196 10.3046 27.011 10.1011 26.8075C8.19558 24.8835 6.47507 22.867 4.93955 20.7579C3.42253 18.6489 2.20152 16.5399 1.31351 14.4494C0.444005 12.3404 0 10.3238 0 8.39982C0 7.1418 0.222002 5.93929 0.666007 4.82928C1.11001 3.70077 1.81302 2.66476 2.79353 1.73975C3.97754 0.574238 5.27255 0.000732422 6.64157 0.000732422C7.15957 0.000732422 7.67758 0.111734 8.14008 0.333736C8.62109 0.555738 9.04659 0.888741 9.37959 1.36975L13.6716 7.41931C14.0046 7.88181 14.2451 8.30732 14.4116 8.71432C14.5781 9.10282 14.6706 9.49133 14.6706 9.84283C14.6706 10.2868 14.5411 10.7308 14.2821 11.1563C14.0416 11.5818 13.6901 12.0259 13.2461 12.4699L11.8401 13.9314C11.6366 14.1349 11.5441 14.3754 11.5441 14.6714C11.5441 14.8194 11.5626 14.9489 11.5996 15.0969C11.6551 15.2449 11.7106 15.3559 11.7476 15.4669C12.0806 16.0774 12.6541 16.8729 13.4681 17.8349C14.3006 18.7969 15.1887 19.7774 16.1507 20.7579C16.3357 20.9429 16.5392 21.1279 16.7242 21.3129C17.4642 22.0345 17.4827 23.2185 16.7427 23.9585Z" fill="black"/>
<path d="M36.9441 30.2098C36.9441 30.7278 36.8516 31.2643 36.6666 31.7823C36.6111 31.9303 36.5556 32.0783 36.4816 32.2263C36.1671 32.8923 35.7601 33.5213 35.2236 34.1133C34.3171 35.1123 33.3181 35.8338 32.1895 36.2963C32.171 36.2963 32.1525 36.3148 32.134 36.3148C31.0425 36.7588 29.8585 36.9993 28.582 36.9993C26.695 36.9993 24.6785 36.5553 22.551 35.6488C20.4234 34.7423 18.2959 33.5213 16.1869 31.9858C15.4654 31.4493 14.7439 30.9128 14.0594 30.3393L20.1089 24.2897C20.6269 24.6782 21.0894 24.9742 21.4779 25.1777C21.5704 25.2147 21.6814 25.2702 21.8109 25.3257C21.9589 25.3812 22.1069 25.3997 22.2735 25.3997C22.588 25.3997 22.8285 25.2887 23.032 25.0852L24.438 23.6977C24.9005 23.2352 25.3445 22.8837 25.77 22.6617C26.1955 22.4027 26.621 22.2732 27.0835 22.2732C27.435 22.2732 27.805 22.3472 28.212 22.5137C28.619 22.6802 29.0445 22.9207 29.507 23.2352L35.6306 27.5827C36.1116 27.9157 36.4446 28.3043 36.6481 28.7668C36.8331 29.2293 36.9441 29.6918 36.9441 30.2098Z" fill="black"/>
</svg>
