<svg width="312" height="207" viewBox="0 0 312 207" fill="none" xmlns="http://www.w3.org/2000/svg">
<mask id="mask0_18_26" style="mask-type:luminance" maskUnits="userSpaceOnUse" x="24" y="67" width="264" height="73">
<path d="M24.9957 67.5661H287.04V139.445H24.9957V67.5661Z" fill="white"/>
</mask>
<g mask="url(#mask0_18_26)">
<mask id="mask1_18_26" style="mask-type:luminance" maskUnits="userSpaceOnUse" x="24" y="67" width="264" height="73">
<path d="M39.3477 67.5661H272.652C276.458 67.5661 280.111 68.5688 282.802 70.3541C285.493 72.1395 287.004 74.5631 287.004 77.0881V129.912C287.004 132.437 285.493 134.858 282.802 136.646C280.111 138.431 276.458 139.434 272.652 139.434H39.3477C35.542 139.434 31.889 138.431 29.198 136.646C26.507 134.858 24.9957 132.437 24.9957 129.912V77.0881C24.9957 74.5631 26.507 72.1395 29.198 70.3541C31.889 68.5688 35.542 67.5661 39.3477 67.5661Z" fill="white"/>
</mask>
<g mask="url(#mask1_18_26)">
<path d="M24.9957 67.5661H287.199V139.445H24.9957V67.5661Z" fill="#FFFE02"/>
</g>
</g>
<path d="M55.1095 111.985C50.7057 111.985 47.7807 111.26 46.3345 109.811C44.8882 108.362 44.729 106.031 45.8535 102.816L46.9325 99.6769H56.4615L55.0445 103.679C54.479 105.272 54.9697 106.068 56.5135 106.068C57.378 106.068 58.0475 105.902 58.5155 105.568C58.9835 105.229 59.3507 104.66 59.6205 103.86C59.991 102.814 60.1015 101.95 59.9455 101.264C59.796 100.58 59.5165 100.009 59.1005 99.5476C58.691 99.0818 57.9045 98.3638 56.7345 97.3913L53.5235 94.6227C51.0437 92.5247 50.2377 90.2045 51.1055 87.6623C52.0415 84.9196 53.7087 82.8323 56.1105 81.4006C58.5187 79.9645 61.5477 79.2443 65.1975 79.2443C69.5557 79.2443 72.4287 80.0119 73.8165 81.5472C75.2107 83.0824 75.3277 85.4845 74.1675 88.7491H64.3005L65.0285 86.5411C65.1747 86.1163 65.1195 85.7799 64.8595 85.5319C64.5995 85.2797 64.1477 85.1524 63.5075 85.1524C62.7535 85.1524 62.1295 85.2904 61.6355 85.5664C61.148 85.8424 60.8327 86.2176 60.6865 86.6877C60.3127 87.7356 60.8425 88.8224 62.2725 89.9479L66.6665 93.5359C67.6805 94.3877 68.4865 95.1919 69.0845 95.9509C69.689 96.7099 70.0757 97.6069 70.2415 98.6419C70.4137 99.6769 70.2577 100.908 69.7735 102.333C68.636 105.497 66.9135 107.897 64.5995 109.535C62.292 111.17 59.1297 111.985 55.1095 111.985Z" fill="black"/>
<path d="M81.1539 111.985C77.2441 111.985 74.5499 111.196 73.0679 109.613C71.5794 108.026 71.3389 105.799 72.3529 102.929L77.6569 87.6278C78.6351 84.857 80.3804 82.7676 82.8959 81.3574C85.4179 79.9494 88.6321 79.2443 92.5419 79.2443C96.4484 79.2443 99.1751 79.9494 100.719 81.3574C102.259 82.7676 102.542 84.857 101.564 87.6278L96.2729 102.929C95.2491 105.822 93.4519 108.056 90.8779 109.63C88.3039 111.2 85.0604 111.985 81.1539 111.985ZM83.1819 106.068C84.0464 106.068 84.7224 105.822 85.2099 105.326C85.7039 104.826 86.0971 104.127 86.3929 103.23L91.8659 87.5157C92.0901 86.8149 92.1454 86.2457 92.0349 85.8079C91.9211 85.3724 91.4304 85.1524 90.5659 85.1524C88.9539 85.1524 87.8651 85.9632 87.3029 87.5847L81.8299 103.265C81.4919 104.186 81.4041 104.884 81.5699 105.361C81.7421 105.833 82.2784 106.068 83.1819 106.068Z" fill="black"/>
<path d="M97.1028 111.683L108.27 79.5462H123.051L120.282 99.1508L131.176 79.5462H146.061L134.894 111.683H126.041L134.101 88.5248L120.451 111.683H111.767L113.912 88.5248L105.852 111.683H97.1028Z" fill="black"/>
<path d="M139.164 111.683L150.331 79.5462H169.74L167.595 85.7907H157.949L156.142 90.914H165.281L163.136 97.0895H153.997L148.927 111.683H139.164Z" fill="black"/>
<path d="M173.114 111.985C169.204 111.985 166.51 111.196 165.028 109.613C163.539 108.026 163.299 105.799 164.313 102.929L169.617 87.6278C170.595 84.857 172.34 82.7676 174.856 81.3574C177.378 79.9494 180.592 79.2443 184.502 79.2443C188.408 79.2443 191.135 79.9494 192.679 81.3574C194.219 82.7676 194.502 84.857 193.524 87.6278L188.233 102.929C187.209 105.822 185.412 108.056 182.838 109.63C180.264 111.2 177.02 111.985 173.114 111.985ZM175.142 106.068C176.006 106.068 176.682 105.822 177.17 105.326C177.664 104.826 178.057 104.127 178.353 103.23L183.826 87.5157C184.05 86.8149 184.105 86.2457 183.995 85.8079C183.881 85.3724 183.39 85.1524 182.526 85.1524C180.914 85.1524 179.825 85.9632 179.263 87.5847L173.79 103.265C173.452 104.186 173.364 104.884 173.53 105.361C173.702 105.833 174.238 106.068 175.142 106.068Z" fill="black"/>
<path d="M200.23 79.5462H215.128C217.494 79.5462 219.2 79.9041 220.25 80.6157C221.306 81.323 221.836 82.3213 221.836 83.6086C221.836 84.8915 221.498 86.5303 220.822 88.5248C220.178 90.3425 219.32 91.7635 218.248 92.7856C217.182 93.8098 215.687 94.5235 213.763 94.9246C215.157 95.1208 216.051 95.606 216.441 96.3822C216.837 97.1541 216.811 98.1999 216.363 99.5217L212.021 111.683H202.544L206.886 99.1077C207.224 98.2107 207.165 97.6393 206.717 97.3913C206.265 97.1455 205.345 97.0205 203.961 97.0205L198.878 111.683H189.063L200.23 79.5462ZM208.303 91.4401C209.655 91.4401 210.669 90.4698 211.345 88.5248C211.647 87.6753 211.806 87.0392 211.826 86.6187C211.842 86.1939 211.728 85.9007 211.488 85.739C211.244 85.5729 210.838 85.4888 210.266 85.4888H208.017L205.989 91.4401H208.303Z" fill="black"/>
<path d="M220.078 111.683L229.1 85.7131H223.354L225.499 79.5462H246.702L244.557 85.7131H238.811L229.789 111.683H220.078Z" fill="black"/>
<path d="M238.285 111.683L249.452 79.5462H268.861L266.716 85.7562H257.187L254.977 92.0007H264.116L262.036 98.0641H252.897L250.297 105.438H260.45L258.305 111.683H238.285Z" fill="black"/>
<path d="M151.677 130.051C150.455 130.051 149.642 129.85 149.246 129.447C148.84 129.039 148.791 128.386 149.103 127.489L149.402 126.618H152.054L151.664 127.73C151.508 128.179 151.644 128.403 152.08 128.403C152.32 128.403 152.509 128.358 152.639 128.265C152.769 128.168 152.866 128.006 152.938 127.782C153.042 127.495 153.071 127.256 153.029 127.066C152.993 126.872 152.915 126.711 152.795 126.583C152.681 126.452 152.463 126.251 152.145 125.98L151.248 125.212C150.552 124.625 150.328 123.979 150.572 123.271C150.832 122.508 151.293 121.926 151.963 121.529C152.639 121.128 153.484 120.925 154.498 120.925C155.71 120.925 156.513 121.141 156.903 121.572C157.293 121.999 157.322 122.665 156.994 123.573H154.251L154.446 122.961C154.488 122.84 154.472 122.745 154.394 122.676C154.322 122.607 154.202 122.573 154.03 122.573C153.812 122.573 153.633 122.612 153.497 122.685C153.367 122.76 153.279 122.864 153.237 122.995C153.133 123.289 153.279 123.595 153.679 123.91L154.901 124.91C155.187 125.147 155.411 125.372 155.577 125.583C155.749 125.79 155.856 126.04 155.902 126.333C155.954 126.622 155.908 126.963 155.772 127.36C155.46 128.239 154.979 128.91 154.329 129.369C153.685 129.824 152.801 130.051 151.677 130.051Z" fill="black"/>
<path d="M158.947 130.051C157.855 130.051 157.101 129.831 156.685 129.386C156.269 128.944 156.204 128.323 156.49 127.523L157.972 123.263C158.238 122.486 158.726 121.904 159.428 121.512C160.13 121.122 161.027 120.925 162.119 120.925C163.211 120.925 163.968 121.122 164.394 121.512C164.826 121.904 164.904 122.486 164.628 123.263L163.159 127.523C162.873 128.33 162.369 128.953 161.651 129.395C160.929 129.833 160.029 130.051 158.947 130.051ZM159.506 128.403C159.746 128.403 159.935 128.334 160.065 128.196C160.201 128.054 160.315 127.858 160.403 127.61L161.924 123.228C161.992 123.034 162.008 122.875 161.976 122.754C161.94 122.633 161.807 122.573 161.573 122.573C161.121 122.573 160.812 122.797 160.65 123.245L159.129 127.618C159.031 127.877 159.005 128.073 159.051 128.205C159.103 128.339 159.252 128.403 159.506 128.403Z" fill="black"/>
<path d="M163.385 129.964L166.505 121.003H170.613L169.846 126.471L172.875 121.003H177.035L173.915 129.964H171.445L173.694 123.513L169.898 129.964H167.48L168.078 123.513L165.829 129.964H163.385Z" fill="black"/>
<path d="M178.784 129.964L181.904 121.003H187.312L186.714 122.737H184.049L183.438 124.479H185.986L185.401 126.169H182.853L182.138 128.222H184.959L184.361 129.964H178.784Z" fill="black"/>
<path d="M188.571 129.964L192.991 121.003H197.567L195.747 129.964H193.186L193.498 128.515H191.86L191.197 129.964H188.571ZM192.575 127.084H193.797L194.772 122.53H194.642L192.575 127.084Z" fill="black"/>
<path d="M199.676 130.051C198.688 130.051 197.966 129.848 197.518 129.438C197.069 129.024 196.969 128.459 197.219 127.739L198.649 123.616C198.961 122.726 199.461 122.055 200.157 121.607C200.849 121.154 201.769 120.925 202.913 120.925C203.907 120.925 204.645 121.106 205.123 121.469C205.607 121.831 205.727 122.353 205.487 123.03L204.954 124.574H202.263L202.731 123.245C202.815 122.993 202.828 122.819 202.77 122.719C202.718 122.622 202.575 122.573 202.341 122.573C202.097 122.573 201.912 122.631 201.782 122.745C201.652 122.855 201.551 123.017 201.483 123.228L199.91 127.722C199.832 127.959 199.822 128.132 199.884 128.239C199.952 128.349 200.092 128.403 200.3 128.403C200.716 128.403 201.002 128.177 201.158 127.722L201.73 126.109H204.447L203.862 127.799C203.342 129.3 201.944 130.051 199.676 130.051Z" fill="black"/>
<path d="M204.004 129.964L207.124 121.003H212.532L211.934 122.737H209.269L208.658 124.479H211.206L210.621 126.169H208.073L207.358 128.222H210.179L209.581 129.964H204.004Z" fill="black"/>
<path d="M213.65 130.051C212.428 130.051 211.615 129.85 211.219 129.447C210.813 129.039 210.764 128.386 211.076 127.489L211.375 126.618H214.027L213.637 127.73C213.481 128.179 213.617 128.403 214.053 128.403C214.293 128.403 214.482 128.358 214.612 128.265C214.742 128.168 214.839 128.006 214.911 127.782C215.015 127.495 215.044 127.256 215.002 127.066C214.966 126.872 214.888 126.711 214.768 126.583C214.654 126.452 214.436 126.251 214.118 125.98L213.221 125.212C212.525 124.625 212.301 123.979 212.545 123.271C212.805 122.508 213.266 121.926 213.936 121.529C214.612 121.128 215.457 120.925 216.471 120.925C217.683 120.925 218.486 121.141 218.876 121.572C219.266 121.999 219.295 122.665 218.967 123.573H216.224L216.419 122.961C216.461 122.84 216.445 122.745 216.367 122.676C216.295 122.607 216.175 122.573 216.003 122.573C215.785 122.573 215.606 122.612 215.47 122.685C215.34 122.76 215.252 122.864 215.21 122.995C215.106 123.289 215.252 123.595 215.652 123.91L216.874 124.91C217.16 125.147 217.384 125.372 217.55 125.583C217.722 125.79 217.829 126.04 217.875 126.333C217.927 126.622 217.881 126.963 217.745 127.36C217.433 128.239 216.952 128.91 216.302 129.369C215.658 129.824 214.774 130.051 213.65 130.051Z" fill="black"/>
<path d="M220.894 130.051C219.672 130.051 218.859 129.85 218.463 129.447C218.056 129.039 218.008 128.386 218.32 127.489L218.619 126.618H221.271L220.881 127.73C220.725 128.179 220.861 128.403 221.297 128.403C221.537 128.403 221.726 128.358 221.856 128.265C221.986 128.168 222.083 128.006 222.155 127.782C222.259 127.495 222.288 127.256 222.246 127.066C222.21 126.872 222.132 126.711 222.012 126.583C221.898 126.452 221.68 126.251 221.362 125.98L220.465 125.212C219.769 124.625 219.545 123.979 219.789 123.271C220.049 122.508 220.51 121.926 221.18 121.529C221.856 121.128 222.701 120.925 223.715 120.925C224.927 120.925 225.73 121.141 226.12 121.572C226.51 121.999 226.539 122.665 226.211 123.573H223.468L223.663 122.961C223.705 122.84 223.689 122.745 223.611 122.676C223.539 122.607 223.419 122.573 223.247 122.573C223.029 122.573 222.85 122.612 222.714 122.685C222.584 122.76 222.496 122.864 222.454 122.995C222.35 123.289 222.496 123.595 222.896 123.91L224.118 124.91C224.404 125.147 224.628 125.372 224.794 125.583C224.966 125.79 225.073 126.04 225.119 126.333C225.171 126.622 225.125 126.963 224.989 127.36C224.677 128.239 224.196 128.91 223.546 129.369C222.902 129.824 222.018 130.051 220.894 130.051Z" fill="black"/>
<path d="M228.15 130.051C227.058 130.051 226.304 129.831 225.888 129.386C225.472 128.944 225.407 128.323 225.693 127.523L227.175 123.263C227.442 122.486 227.929 121.904 228.631 121.512C229.333 121.122 230.23 120.925 231.322 120.925C232.414 120.925 233.172 121.122 233.597 121.512C234.03 121.904 234.108 122.486 233.831 123.263L232.362 127.523C232.076 128.33 231.573 128.953 230.854 129.395C230.133 129.833 229.233 130.051 228.15 130.051ZM228.709 128.403C228.95 128.403 229.138 128.334 229.268 128.196C229.405 128.054 229.519 127.858 229.606 127.61L231.127 123.228C231.196 123.034 231.212 122.875 231.179 122.754C231.144 122.633 231.01 122.573 230.776 122.573C230.325 122.573 230.016 122.797 229.853 123.245L228.332 127.618C228.235 127.877 228.209 128.073 228.254 128.205C228.306 128.338 228.456 128.403 228.709 128.403ZM227.968 120.736L228.358 119.597L232.401 118.476L231.79 120.253L227.968 120.736Z" fill="black"/>
<path d="M235.722 121.003H239.869C240.526 121.003 241.003 121.104 241.299 121.305C241.592 121.501 241.741 121.779 241.741 122.141C241.741 122.499 241.644 122.956 241.455 123.513C241.273 124.019 241.029 124.416 240.727 124.703C240.431 124.985 240.019 125.182 239.492 125.29C239.882 125.348 240.129 125.486 240.233 125.704C240.344 125.917 240.337 126.208 240.207 126.575L238.998 129.964H236.359L237.568 126.463C237.662 126.21 237.646 126.049 237.516 125.98C237.393 125.911 237.139 125.876 236.749 125.876L235.345 129.964H232.602L235.722 121.003ZM237.971 124.324C238.342 124.324 238.624 124.054 238.816 123.513C238.894 123.278 238.936 123.099 238.946 122.978C238.953 122.857 238.923 122.777 238.855 122.737C238.784 122.691 238.673 122.668 238.517 122.668H237.88L237.321 124.324H237.971Z" fill="black"/>
<path d="M239.98 129.964L243.087 121.003H245.7L242.58 129.964H239.98Z" fill="black"/>
<path d="M246.862 130.051C245.77 130.051 245.016 129.831 244.6 129.386C244.184 128.944 244.119 128.323 244.405 127.523L245.887 123.263C246.154 122.486 246.641 121.904 247.343 121.512C248.045 121.122 248.942 120.925 250.034 120.925C251.126 120.925 251.883 121.122 252.309 121.512C252.741 121.904 252.819 122.486 252.543 123.263L251.074 127.523C250.788 128.33 250.284 128.953 249.566 129.395C248.845 129.833 247.944 130.051 246.862 130.051ZM247.421 128.403C247.662 128.403 247.85 128.334 247.98 128.196C248.117 128.054 248.23 127.858 248.318 127.61L249.839 123.228C249.907 123.034 249.924 122.875 249.891 122.754C249.855 122.633 249.722 122.573 249.488 122.573C249.036 122.573 248.728 122.797 248.565 123.245L247.044 127.618C246.947 127.877 246.921 128.073 246.966 128.205C247.018 128.339 247.168 128.403 247.421 128.403Z" fill="black"/>
<path d="M254.473 130.051C253.251 130.051 252.438 129.85 252.042 129.447C251.636 129.039 251.587 128.386 251.899 127.489L252.198 126.618H254.85L254.46 127.73C254.304 128.179 254.44 128.403 254.876 128.403C255.116 128.403 255.305 128.358 255.435 128.265C255.565 128.168 255.662 128.006 255.734 127.782C255.838 127.495 255.867 127.256 255.825 127.066C255.789 126.872 255.711 126.711 255.591 126.583C255.477 126.452 255.259 126.251 254.941 125.98L254.044 125.212C253.348 124.625 253.124 123.979 253.368 123.271C253.628 122.508 254.089 121.926 254.759 121.529C255.435 121.128 256.28 120.925 257.294 120.925C258.506 120.925 259.309 121.141 259.699 121.572C260.089 121.999 260.118 122.665 259.79 123.573H257.047L257.242 122.961C257.284 122.84 257.268 122.745 257.19 122.676C257.118 122.607 256.998 122.573 256.826 122.573C256.608 122.573 256.429 122.612 256.293 122.685C256.163 122.76 256.075 122.864 256.033 122.995C255.929 123.289 256.075 123.595 256.475 123.91L257.697 124.91C257.983 125.147 258.207 125.372 258.373 125.583C258.545 125.79 258.652 126.04 258.698 126.333C258.75 126.622 258.704 126.963 258.568 127.36C258.256 128.239 257.775 128.91 257.125 129.369C256.481 129.824 255.597 130.051 254.473 130.051Z" fill="black"/>
</svg>
