<svg width="204" height="48" viewBox="0 0 204 48" fill="none" xmlns="http://www.w3.org/2000/svg">
<path d="M156.961 21.794L152.324 25.7085C151.688 26.2452 151.255 27.3187 151.387 28.087L152.107 32.6756C152.576 35.6118 150.497 36.8851 147.495 35.5166L142.402 33.1798C141.549 32.7903 140.156 32.8112 139.327 33.2426L134.871 35.5259C131.351 37.3252 129.249 35.9673 130.187 32.4944L131.497 27.643C131.737 26.759 131.293 25.5487 130.536 24.9487L126.32 21.6122C123.306 19.223 124.147 17.0551 128.207 16.7818L133.348 16.4455C134.309 16.3825 135.474 15.7196 135.918 14.9724L138.585 10.5105C140.159 7.8901 142.694 7.90086 144.219 10.5426L146.597 14.6683C147.005 15.3629 148.038 16.0365 148.915 16.1524L155.28 17.0581C158.716 17.5425 159.472 19.6789 156.961 21.794Z" fill="#FFFE02"/>
<path d="M196.398 21.684L191.761 25.5985C191.124 26.1352 190.692 27.2087 190.824 27.977L191.544 32.5656C192.012 35.5018 189.934 36.7751 186.931 35.4066L181.839 33.0698C180.986 32.6803 179.593 32.7012 178.764 33.1327L174.307 35.416C170.788 37.2152 168.686 35.8573 169.623 32.3845L170.933 27.533C171.173 26.649 170.729 25.4387 169.972 24.8387L165.757 21.5022C162.742 19.113 163.583 16.9451 167.643 16.6718L172.784 16.3355C173.745 16.2725 174.91 15.6096 175.355 14.8624L178.022 10.4005C179.596 7.78011 182.13 7.79088 183.655 10.4326L186.033 14.5583C186.441 15.2529 187.474 15.9265 188.351 16.0424L194.717 16.9481C198.152 17.4325 198.909 19.5689 196.398 21.684Z" fill="#FFFE02"/>
<path d="M78.4675 21.8864L73.8306 25.8009C73.194 26.3376 72.7615 27.4111 72.8936 28.1794L73.6137 32.768C74.0817 35.7042 72.0036 36.9775 69.0009 35.609L63.9084 33.2722C63.0556 32.8827 61.6623 32.9036 60.8335 33.335L56.377 35.6184C52.8574 37.4176 50.7555 36.0597 51.6928 32.5869L53.0027 27.7354C53.243 26.8514 52.7988 25.6411 52.0421 25.0411L47.8266 21.7046C44.812 19.3154 45.6531 17.1475 49.713 16.8742L54.8538 16.5379C55.8148 16.4749 56.9799 15.812 57.4245 15.0648L60.0916 10.6029C61.6654 7.9825 64.1998 7.99327 65.7249 10.635L68.1027 14.7607C68.511 15.4553 69.5439 16.1289 70.4207 16.2448L76.7866 17.1505C80.2218 17.6349 80.9781 19.7713 78.4675 21.8864Z" fill="#FFFE02"/>
<path d="M117.904 21.7763L113.267 25.6908C112.63 26.2275 112.198 27.301 112.33 28.0693L113.05 32.6579C113.518 35.5941 111.44 36.8674 108.437 35.4989L103.345 33.1621C102.492 32.7726 101.099 32.7935 100.27 33.2249L95.8134 35.5082C92.2939 37.3075 90.1919 35.9496 91.1293 32.4767L92.4391 27.6253C92.6795 26.7413 92.2352 25.531 91.4786 24.931L87.263 21.5945C84.2485 19.2053 85.0895 17.0374 89.1494 16.7641L94.2903 16.4278C95.2512 16.3648 96.4164 15.7019 96.8609 14.9547L99.5281 10.4928C101.102 7.8724 103.636 7.88316 105.161 10.5249L107.539 14.6506C107.947 15.3452 108.98 16.0188 109.857 16.1347L116.223 17.0404C119.658 17.5248 120.415 19.6612 117.904 21.7763Z" fill="#FFFE02"/>
<path d="M39.4101 21.3931L34.7733 25.3076C34.1366 25.8443 33.7042 26.9178 33.8362 27.6861L34.5563 32.2747C35.0244 35.211 32.9462 36.4842 29.9436 35.1158L24.851 32.7789C23.9983 32.3894 22.6049 32.4104 21.7761 32.8418L17.3196 35.1251C13.8 36.9244 11.6981 35.5664 12.6354 32.0936L13.9453 27.2421C14.1856 26.3581 13.7414 25.1478 12.9847 24.5479L8.76921 21.2113C5.75465 18.8221 6.59571 16.6542 10.6556 16.3809L15.7965 16.0446C16.7574 15.9816 17.9226 15.3187 18.3671 14.5715L21.0342 10.1096C22.6081 7.48922 25.1424 7.49998 26.6675 10.1417L29.0453 14.2674C29.4536 14.962 30.4865 15.6356 31.3633 15.7515L37.7293 16.6572C41.1644 17.1416 41.9208 19.278 39.4101 21.3931Z" fill="#FFFE02"/>
</svg>
