<svg width="35" height="35" viewBox="0 0 35 35" fill="none" xmlns="http://www.w3.org/2000/svg">
<path d="M12.5083 9.60547C11.5286 9.60547 10.7588 10.3927 10.7588 11.3549C10.7588 12.3171 11.546 13.1044 12.5083 13.1044C13.4705 13.1044 14.2577 12.3171 14.2577 11.3549C14.2577 10.3927 13.4705 9.60547 12.5083 9.60547Z" fill="black"/>
<path d="M34.0521 5.3215C32.5822 1.90929 29.345 0.00195312 24.8304 0.00195312H10.1666C4.54961 0.00195312 0 4.55157 0 10.1686V24.8323C0 29.347 1.90734 32.5842 5.31955 34.0541C5.65202 34.194 6.03699 34.1066 6.28197 33.8616L33.8596 6.28392C34.1221 6.02144 34.2096 5.63647 34.0521 5.3215ZM14.9262 17.9204C14.2438 18.5854 13.3514 18.9003 12.4589 18.9003C11.5665 18.9003 10.6741 18.5679 9.99165 17.9204C8.2068 16.2406 6.24697 13.5633 6.99941 10.3786C7.66435 7.49132 10.2191 6.19643 12.4589 6.19643C14.6988 6.19643 17.2535 7.49132 17.9185 10.3961C18.6534 13.5633 16.6936 16.2406 14.9262 17.9204Z" fill="black"/>
<path d="M30.568 32.4259C30.953 32.8109 30.9005 33.4408 30.428 33.7033C28.8881 34.5607 27.0158 34.9982 24.8285 34.9982H10.1648C9.65731 34.9982 9.44733 34.4032 9.7973 34.0533L20.3664 23.4842C20.7163 23.1342 21.2588 23.1342 21.6088 23.4842L30.568 32.4259Z" fill="black"/>
<path d="M35 10.1665V24.8303C35 27.0176 34.5625 28.9074 33.7051 30.4298C33.4426 30.9022 32.8127 30.9372 32.4277 30.5698L23.4685 21.6105C23.1185 21.2606 23.1185 20.7181 23.4685 20.3681L34.0376 9.79907C34.405 9.4491 35 9.65908 35 10.1665Z" fill="black"/>
</svg>
